<svg width="21" height="21" viewBox="0 0 21 21" fill="none" xmlns="http://www.w3.org/2000/svg">
<path d="M0 10.0962C2.34089e-07 7.41849 1.0637 4.85049 2.95709 2.95709C4.85049 1.0637 7.41849 2.87272e-07 10.0962 0C12.7738 -2.87272e-07 15.3418 1.0637 17.2352 2.95709C19.1286 4.85049 20.1923 7.41848 20.1923 10.0962L17.1635 10.0962C17.1635 8.22179 16.4189 6.42419 15.0935 5.09881C13.7681 3.77343 11.9705 3.02885 10.0962 3.02885C8.22179 3.02885 6.42419 3.77344 5.09881 5.09881C3.77344 6.42419 3.02885 8.22179 3.02885 10.0962H0Z" fill="#929292"/>
<path d="M0 10.0962H3.02885V14.9423H0L0 10.0962Z" fill="#929292"/>
<path d="M17.1635 10.0962L20.1923 10.0962V14.9423H17.1635V10.0962Z" fill="#929292"/>
<path d="M0 14.9423H4.44231V21H0V14.9423Z" fill="#929292"/>
<path d="M15.75 14.9423H20.1923V21H15.75V14.9423Z" fill="#929292"/>
</svg>
