<svg width="15" height="21" viewBox="0 0 15 21" fill="none" xmlns="http://www.w3.org/2000/svg">
<path d="M14.8615 10.5C14.8615 12.4279 14.0787 14.2769 12.6851 15.6401C11.2916 17.0034 9.40153 17.7692 7.43077 17.7692C5.46001 17.7692 3.56996 17.0034 2.17642 15.6401C0.782883 14.2769 2.97577e-07 12.4279 0 10.5H2.22923C2.22923 11.8495 2.77725 13.1438 3.75273 14.0981C4.7282 15.0524 6.05124 15.5885 7.43077 15.5885C8.8103 15.5885 10.1333 15.0524 11.1088 14.0981C12.0843 13.1438 12.6323 11.8495 12.6323 10.5H14.8615Z" fill="#929292"/>
<path d="M2.90769 4.52308C2.90769 2.02505 4.93274 0 7.43077 0C9.9288 0 11.9538 2.02505 11.9538 4.52308V10.3385C11.9538 12.8365 9.9288 14.8615 7.43077 14.8615C4.93274 14.8615 2.90769 12.8365 2.90769 10.3385V4.52308Z" fill="#929292"/>
<path d="M6.13846 16.8H9.04615V21H6.13846V16.8Z" fill="#929292"/>
</svg>
